<svg width="200" height="200" viewBox="0 0 200 200" fill="none" xmlns="http://www.w3.org/2000/svg">
<path fill-rule="evenodd" clip-rule="evenodd" d="M73.0622 37.0062C73.4536 36.6102 74.0931 36.6102 74.4845 37.0062L88.7129 51.3992C89.098 51.7888 89.098 52.4157 88.7129 52.8053L82.0996 59.4952C81.7081 59.8911 81.0687 59.8911 80.6772 59.4952L74.4845 53.2308C74.0931 52.8348 73.4536 52.8348 73.0622 53.2308L28.1301 98.6829C27.945 98.8701 27.8413 99.1227 27.8413 99.3859V151.527C27.8413 152.08 28.289 152.527 28.8413 152.527H118.989C119.541 152.527 119.989 152.08 119.989 151.528V99.3859C119.989 99.1227 119.885 98.8701 119.7 98.6829L110.862 89.7423C110.477 89.3527 110.477 88.7258 110.862 88.3362L117.475 81.6463C117.867 81.2504 118.506 81.2504 118.897 81.6463L131.041 93.9308C131.226 94.118 131.33 94.3706 131.33 94.6338V163C131.33 163.552 130.883 164 130.33 164H17.5C16.9477 164 16.5 163.552 16.5 163V94.6338C16.5 94.3706 16.6038 94.118 16.7888 93.9308L73.0622 37.0062Z" fill="#14384C"/>
<path fill-rule="evenodd" clip-rule="evenodd" d="M124.948 36.7194C125.34 36.3234 125.979 36.3234 126.371 36.7194L183.211 94.2176C183.396 94.4048 183.5 94.6574 183.5 94.9206V162.713C183.5 163.265 183.052 163.713 182.5 163.713H147.641C147.089 163.713 146.641 163.265 146.641 162.713V153.241C146.641 152.688 147.089 152.241 147.641 152.241H171.159C171.711 152.241 172.159 151.793 172.159 151.241V99.6727C172.159 99.4095 172.055 99.1569 171.87 98.9697L126.371 52.944C125.979 52.548 125.34 52.548 124.948 52.944L79.4493 98.9697C79.2642 99.1569 79.1604 99.4095 79.1604 99.6727V137.76C79.1604 138.313 78.7127 138.76 78.1604 138.76H68.8192C68.2669 138.76 67.8192 138.313 67.8192 137.76V94.9206C67.8192 94.6574 67.923 94.4048 68.108 94.2176L124.948 36.7194Z" fill="#4DA66B"/>
</svg>
