<svg width="56" height="81" viewBox="0 0 56 81" fill="none" xmlns="http://www.w3.org/2000/svg">
<g filter="url(#filter0_d_154_530)">
<path d="M27.9998 8.5C24.0402 8.50008 20.2338 10.0306 17.3763 12.7716C14.5187 15.5125 12.8312 19.2519 12.6663 23.2081C12.5014 27.1643 13.872 31.0311 16.4915 34.0004C19.1111 36.9696 22.7769 38.8115 26.7227 39.1411V63.7229C26.7227 64.0616 26.8573 64.3864 27.0968 64.6259C27.3363 64.8654 27.6611 65 27.9998 65C28.3385 65 28.6634 64.8654 28.9029 64.6259C29.1424 64.3864 29.2769 64.0616 29.2769 63.7229V39.1499C32.8795 38.884 36.2671 37.3346 38.8244 34.7832C40.9784 32.6355 42.4475 29.8975 43.0462 26.9152C43.6448 23.9329 43.3461 20.84 42.1877 18.0274C41.0294 15.2148 39.0634 12.8086 36.5381 11.1129C34.0128 9.41711 31.0416 8.50786 27.9998 8.5ZM23.4827 18.7779C21.6844 21.1158 21.1967 24.3414 22.2094 27.1965C22.2655 27.3545 22.2899 27.5221 22.2812 27.6896C22.2725 27.8571 22.231 28.0212 22.1589 28.1726C22.0867 28.3241 21.9855 28.4598 21.8609 28.5721C21.7364 28.6844 21.5909 28.7711 21.4328 28.8272C21.2748 28.8832 21.1072 28.9076 20.9397 28.899C20.7722 28.8903 20.6081 28.8487 20.4566 28.7766C20.3052 28.7045 20.1695 28.6033 20.0572 28.4787C19.9449 28.3541 19.8582 28.2086 19.8021 28.0506C18.5026 24.3876 19.1371 20.2379 21.4582 17.2209C21.6648 16.9525 21.9695 16.7771 22.3053 16.7333C22.6412 16.6895 22.9807 16.7809 23.2492 16.9874C23.5176 17.1939 23.693 17.4986 23.7368 17.8345C23.7806 18.1704 23.6892 18.5099 23.4827 18.7783V18.7779Z" fill="#14384C"/>
<path d="M28.0037 7L27.9998 7C23.6532 7.00009 19.4748 8.68016 16.3379 11.689C13.2011 14.6979 11.3486 18.8028 11.1676 23.1456C10.9866 27.4885 12.4911 31.7332 15.3667 34.9927C17.9354 37.9044 21.4206 39.8285 25.2227 40.4639V63.7229C25.2227 64.4594 25.5153 65.1658 26.0361 65.6866C26.5569 66.2074 27.2633 66.5 27.9998 66.5C28.7364 66.5 29.4427 66.2074 29.9635 65.6866C30.4843 65.1658 30.7769 64.4594 30.7769 63.7229V40.4842C34.2131 39.9367 37.4035 38.3196 39.8835 35.8454C42.2475 33.4883 43.8598 30.4834 44.5168 27.2104C45.1738 23.9374 44.846 20.543 43.5747 17.4562C42.3034 14.3694 40.1458 11.7287 37.3743 9.86759C34.6029 8.00652 31.342 7.00863 28.0037 7ZM27.9998 8.49981L27.9998 8.5L27.9998 8.49981ZM21.2158 27.549C21.2158 27.549 21.2158 27.549 21.2158 27.5489L21.2158 27.549Z" stroke="white" stroke-width="3"/>
</g>
<defs>
<filter id="filter0_d_154_530" x="0.652954" y="0.5" width="54.6942" height="80.5" filterUnits="userSpaceOnUse" color-interpolation-filters="sRGB">
<feFlood flood-opacity="0" result="BackgroundImageFix"/>
<feColorMatrix in="SourceAlpha" type="matrix" values="0 0 0 0 0 0 0 0 0 0 0 0 0 0 0 0 0 0 127 0" result="hardAlpha"/>
<feOffset dy="4"/>
<feGaussianBlur stdDeviation="4.5"/>
<feComposite in2="hardAlpha" operator="out"/>
<feColorMatrix type="matrix" values="0 0 0 0 0 0 0 0 0 0 0 0 0 0 0 0 0 0 0.25 0"/>
<feBlend mode="normal" in2="BackgroundImageFix" result="effect1_dropShadow_154_530"/>
<feBlend mode="normal" in="SourceGraphic" in2="effect1_dropShadow_154_530" result="shape"/>
</filter>
</defs>
</svg>
