<svg width="114" height="113" viewBox="0 0 114 113" fill="none" xmlns="http://www.w3.org/2000/svg">
<g clip-path="url(#clip0_209_453)">
<rect x="0.5" y="0.5" width="57" height="57" stroke="#F9F7F2"/>
<rect x="0.5" y="0.5" width="57" height="57" stroke="#F9F7F2"/>
<rect x="57.5" y="0.5" width="57" height="57" stroke="#F9F7F2"/>
<rect x="57.5" y="57.5" width="57" height="57" stroke="#F9F7F2"/>
<rect x="0.5" y="57.5" width="57" height="57" stroke="#F9F7F2"/>
<path d="M55.0029 -0.00499535H56.9929V-1.995H58.0129V-0.00499535H60.0029V1.015H58.0129V3.01501H56.9929V1.015H55.0029V-0.00499535Z" fill="#DFD7CC"/>
<path d="M112.034 -0.00499535H114.024V-1.995H115.044V-0.00499535H117.034V1.015H115.044V3.01501H114.024V1.015H112.034V-0.00499535Z" fill="#DFD7CC"/>
<path d="M-1.98145 -0.00499535H0.00855482V-1.995H1.02855V-0.00499535H3.01855V1.015H1.02855V3.01501H0.00855482V1.015H-1.98145V-0.00499535Z" fill="#DFD7CC"/>
<path d="M-1.98145 57.0162H0.00855482V55.0262H1.02855V57.0162H3.01855V58.0362H1.02855V60.0362H0.00855482V58.0362H-1.98145V57.0162Z" fill="#DFD7CC"/>
<path d="M-1.98145 113.985H0.00855482V111.995H1.02855V113.985H3.01855V115.005H1.02855V117.005H0.00855482V115.005H-1.98145V113.985Z" fill="#DFD7CC"/>
<path d="M55.0498 57.0475H57.0398V55.0575H58.0598V57.0475H60.0498V58.0675H58.0598V60.0675H57.0398V58.0675H55.0498V57.0475Z" fill="#DFD7CC"/>
<path d="M112.081 57.0475H114.071V55.0575H115.091V57.0475H117.081V58.0675H115.091V60.0675H114.071V58.0675H112.081V57.0475Z" fill="#DFD7CC"/>
<path d="M55.0498 113.985H57.0398V111.995H58.0598V113.985H60.0498V115.005H58.0598V117.005H57.0398V115.005H55.0498V113.985Z" fill="#DFD7CC"/>
<path d="M112.081 113.985H114.071V111.995H115.091V113.985H117.081V115.005H115.091V117.005H114.071V115.005H112.081V113.985Z" fill="#DFD7CC"/>
</g>
<defs>
<clipPath id="clip0_209_453">
<rect width="114" height="113" fill="white"/>
</clipPath>
</defs>
</svg>
